<?xml version="1.0" ?><svg id="Capa_1" style="enable-background:new 0 0 100 100;" version="1.1" viewBox="0 0 100 100" xml:space="preserve" xmlns="http://www.w3.org/2000/svg" xmlns:xlink="http://www.w3.org/1999/xlink"><path d="M37.6,95.7c-3.5,0-6.7-1.8-8.5-4.8c-1.8-3-1.9-6.7-0.2-9.8l7.4-13.5c0.3-0.5,0.8-0.8,1.3-0.8s1.1,0.3,1.3,0.8l7.4,13.5  c1.7,3.1,1.6,6.7-0.2,9.8C44.3,93.9,41.2,95.7,37.6,95.7z M37.6,71.4l-6,11.1c-1.2,2.1-1.1,4.7,0.1,6.8c1.2,2.1,3.5,3.4,5.9,3.4  s4.7-1.3,5.9-3.4c1.2-2.1,1.3-4.6,0.1-6.8L37.6,71.4z"/><path d="M34.6,88.5c-0.3,0-0.5-0.1-0.6-0.4c-0.4-0.7-0.6-1.5-0.6-2.3c0-0.4,0.3-0.8,0.8-0.8s0.8,0.3,0.8,0.8c0,0.5,0.1,1,0.4,1.5  c0.2,0.4,0.1,0.8-0.2,1C34.9,88.4,34.7,88.5,34.6,88.5z"/><path d="M56.1,24.5h-3.5c-0.4,0-0.8-0.3-0.8-0.8v-7c0-0.4,0.3-0.8,0.8-0.8h3.5c0.4,0,0.8,0.3,0.8,0.8v7  C56.8,24.1,56.5,24.5,56.1,24.5z M53.3,23h2v-5.5h-2V23z"/><path d="M75.7,18.1H32.9c-0.8,0-1.5-0.7-1.5-1.5V9.4c0-0.8,0.7-1.5,1.5-1.5h42.8c0.8,0,1.5,0.7,1.5,1.5v7.2  C77.2,17.4,76.6,18.1,75.7,18.1z M34.4,15.1h39.8v-4.2H34.4V15.1z"/><path d="M57.9,28h-7.2c-0.4,0-0.8-0.3-0.8-0.8v-3.5c0-0.4,0.3-0.8,0.8-0.8h7.2c0.4,0,0.8,0.3,0.8,0.8v3.5C58.6,27.6,58.3,28,57.9,28  z M51.5,26.5h5.7v-2h-5.7V26.5z"/><path d="M56.4,10.1h-4.1c-0.4,0-0.8-0.3-0.8-0.8V7.3c0-1.6,1.3-2.8,2.8-2.8s2.8,1.3,2.8,2.8v2.1C57.1,9.8,56.8,10.1,56.4,10.1z   M53,8.6h2.6V7.3C55.6,6.6,55,6,54.3,6S53,6.6,53,7.3V8.6z"/><path d="M47.6,59.7H28.3c-0.8,0-1.5-0.7-1.5-1.5V46.6c0-11.5,9.4-20.9,20.9-20.9h28.1c0.8,0,1.5,0.7,1.5,1.5v19.7  c0,0.8-0.7,1.5-1.5,1.5H49.1v9.9C49.1,59.1,48.5,59.7,47.6,59.7z M29.8,56.7h16.4v-9.9c0-0.8,0.7-1.5,1.5-1.5h26.6V28.7H47.6  c-9.9,0-17.9,8-17.9,17.9V56.7z"/><path d="M47,64.7H28.1c-2.2,0-4-1.8-4-4c0-2.2,1.8-4,4-4H47c2.2,0,4,1.8,4,4C50.9,62.9,49.2,64.7,47,64.7z M28.1,59.7  c-0.5,0-1,0.4-1,1s0.4,1,1,1H47c0.5,0,1-0.4,1-1s-0.4-1-1-1H28.1z"/><rect height="6" width="1" x="54" y="10"/></svg>